<svg xmlns="http://www.w3.org/2000/svg" xmlns:xlink="http://www.w3.org/1999/xlink" width="500" zoomAndPan="magnify" viewBox="0 0 375 374.999991" height="500" preserveAspectRatio="xMidYMid meet" version="1.2"><defs><clipPath id="3ff82129a8"><rect x="0" width="324" y="0" height="39"/></clipPath></defs><g id="50514e761d"><path style=" stroke:none;fill-rule:nonzero;fill:#033668;fill-opacity:1;" d="M 193.355469 208.457031 C 193.410156 202.832031 193.453125 196.316406 193.453125 193.980469 L 193.453125 189.730469 L 192.589844 187.84375 C 191.542969 185.550781 190.546875 183.792969 189.234375 181.9375 C 183.949219 174.46875 174.929688 168.738281 165.207031 166.667969 C 163.109375 166.222656 160.015625 165.777344 159.902344 165.902344 C 159.871094 165.941406 159.796875 172.320312 159.734375 180.085938 L 159.628906 194.199219 L 160.632812 194.292969 C 161.917969 194.410156 165.152344 195.285156 167.019531 196.023438 C 168.933594 196.773438 172.589844 198.71875 174.59375 200.054688 C 181.179688 204.4375 187.058594 210.140625 191.953125 216.890625 L 193.257812 218.691406 Z M 193.355469 208.457031 "/><path style=" stroke:none;fill-rule:nonzero;fill:#f0b720;fill-opacity:1;" d="M 193.21875 208.585938 C 193.269531 202.957031 193.332031 196.222656 193.332031 193.886719 L 193.332031 189.640625 L 194.195312 187.753906 C 195.242188 185.457031 196.238281 183.699219 197.554688 181.84375 C 202.835938 174.378906 211.855469 168.644531 221.578125 166.574219 C 223.675781 166.128906 226.769531 165.683594 226.882812 165.8125 C 226.914062 165.847656 226.992188 172.230469 227.050781 179.992188 L 227.15625 194.109375 L 226.15625 194.199219 C 224.871094 194.320312 221.636719 195.195312 219.765625 195.929688 C 217.851562 196.683594 214.195312 198.628906 212.191406 199.960938 C 205.605469 204.34375 198.644531 209.527344 194.335938 216.695312 L 193.128906 218.703125 Z M 193.21875 208.585938 "/><g transform="matrix(1,0,0,1,24,168)"><g clip-path="url(#3ff82129a8)"><g style="fill:#023a69;fill-opacity:1;"><g transform="translate(0.799117, 30.31094)"><path style="stroke:none" d="M 22.6875 0 L 22.65625 -13.234375 L 16.15625 -2.328125 L 13.859375 -2.328125 L 7.40625 -12.953125 L 7.40625 0 L 2.609375 0 L 2.609375 -22.046875 L 6.828125 -22.046875 L 15.09375 -8.34375 L 23.21875 -22.046875 L 27.40625 -22.046875 L 27.46875 0 Z M 22.6875 0 "/></g></g><g style="fill:#023a69;fill-opacity:1;"><g transform="translate(30.882798, 30.31094)"><path style="stroke:none" d="M 19.6875 -4.09375 L 19.6875 0 L 2.609375 0 L 2.609375 -22.046875 L 19.28125 -22.046875 L 19.28125 -17.953125 L 7.6875 -17.953125 L 7.6875 -13.171875 L 17.921875 -13.171875 L 17.921875 -9.203125 L 7.6875 -9.203125 L 7.6875 -4.09375 Z M 19.6875 -4.09375 "/></g></g><g style="fill:#023a69;fill-opacity:1;"><g transform="translate(52.02013, 30.31094)"><path style="stroke:none" d="M 20.46875 -4.15625 L 20.46875 0 L 1.203125 0 L 1.203125 -3.3125 L 13.296875 -17.890625 L 1.453125 -17.890625 L 1.453125 -22.046875 L 20 -22.046875 L 20 -18.75 L 7.9375 -4.15625 Z M 20.46875 -4.15625 "/></g></g><g style="fill:#023a69;fill-opacity:1;"><g transform="translate(72.936924, 30.31094)"><path style="stroke:none" d="M 13.296875 0.375 C 11.003906 0.375 8.9375 -0.113281 7.09375 -1.09375 C 5.257812 -2.082031 3.820312 -3.441406 2.78125 -5.171875 C 1.75 -6.910156 1.234375 -8.863281 1.234375 -11.03125 C 1.234375 -13.1875 1.75 -15.128906 2.78125 -16.859375 C 3.820312 -18.597656 5.257812 -19.957031 7.09375 -20.9375 C 8.9375 -21.925781 11.003906 -22.421875 13.296875 -22.421875 C 15.578125 -22.421875 17.628906 -21.925781 19.453125 -20.9375 C 21.285156 -19.957031 22.726562 -18.597656 23.78125 -16.859375 C 24.832031 -15.128906 25.359375 -13.1875 25.359375 -11.03125 C 25.359375 -8.863281 24.832031 -6.910156 23.78125 -5.171875 C 22.726562 -3.441406 21.285156 -2.082031 19.453125 -1.09375 C 17.628906 -0.113281 15.578125 0.375 13.296875 0.375 Z M 13.296875 -3.96875 C 14.597656 -3.96875 15.769531 -4.265625 16.8125 -4.859375 C 17.863281 -5.460938 18.6875 -6.300781 19.28125 -7.375 C 19.882812 -8.445312 20.1875 -9.664062 20.1875 -11.03125 C 20.1875 -12.394531 19.882812 -13.609375 19.28125 -14.671875 C 18.6875 -15.742188 17.863281 -16.578125 16.8125 -17.171875 C 15.769531 -17.773438 14.597656 -18.078125 13.296875 -18.078125 C 11.992188 -18.078125 10.816406 -17.773438 9.765625 -17.171875 C 8.710938 -16.578125 7.882812 -15.742188 7.28125 -14.671875 C 6.6875 -13.609375 6.390625 -12.394531 6.390625 -11.03125 C 6.390625 -9.664062 6.6875 -8.445312 7.28125 -7.375 C 7.882812 -6.300781 8.710938 -5.460938 9.765625 -4.859375 C 10.816406 -4.265625 11.992188 -3.96875 13.296875 -3.96875 Z M 13.296875 -3.96875 "/></g></g><g style="fill:#023a69;fill-opacity:1;"><g transform="translate(99.523973, 30.31094)"><path style="stroke:none" d="M 22.84375 -22.046875 L 22.84375 0 L 18.640625 0 L 7.65625 -13.390625 L 7.65625 0 L 2.609375 0 L 2.609375 -22.046875 L 6.828125 -22.046875 L 17.796875 -8.65625 L 17.796875 -22.046875 Z M 22.84375 -22.046875 "/></g></g><g style="fill:#462822;fill-opacity:1;"><g transform="translate(124.981633, 30.31094)"><path style="stroke:none" d=""/></g></g><g style="fill:#b59c7c;fill-opacity:1;"><g transform="translate(133.898613, 30.31094)"><path style="stroke:none" d=""/></g></g><g style="fill:#b59c7c;fill-opacity:1;"><g transform="translate(142.813464, 30.31094)"><path style="stroke:none" d=""/></g></g><g style="fill:#b59c7c;fill-opacity:1;"><g transform="translate(151.728315, 30.31094)"><path style="stroke:none" d=""/></g></g><g style="fill:#b59c7c;fill-opacity:1;"><g transform="translate(160.643166, 30.31094)"><path style="stroke:none" d=""/></g></g><g style="fill:#b59c7c;fill-opacity:1;"><g transform="translate(169.558017, 30.31094)"><path style="stroke:none" d=""/></g></g><g style="fill:#b59c7c;fill-opacity:1;"><g transform="translate(178.472868, 30.31094)"><path style="stroke:none" d=""/></g></g><g style="fill:#b59c7c;fill-opacity:1;"><g transform="translate(187.387719, 30.31094)"><path style="stroke:none" d=""/></g></g><g style="fill:#b59c7c;fill-opacity:1;"><g transform="translate(196.30257, 30.31094)"><path style="stroke:none" d=""/></g></g><g style="fill:#b59c7c;fill-opacity:1;"><g transform="translate(205.21742, 30.31094)"><path style="stroke:none" d=""/></g></g><g style="fill:#f8b801;fill-opacity:1;"><g transform="translate(214.136081, 30.31094)"><path style="stroke:none" d="M 7.1875 -17.890625 L 0.125 -17.890625 L 0.125 -22.046875 L 19.34375 -22.046875 L 19.34375 -17.890625 L 12.28125 -17.890625 L 12.28125 0 L 7.1875 0 Z M 7.1875 -17.890625 "/></g></g><g style="fill:#f8b801;fill-opacity:1;"><g transform="translate(232.501149, 30.31094)"><path style="stroke:none" d="M 17.140625 -4.71875 L 6.90625 -4.71875 L 4.953125 0 L -0.28125 0 L 9.546875 -22.046875 L 14.578125 -22.046875 L 24.4375 0 L 19.09375 0 Z M 15.53125 -8.59375 L 12.03125 -17.046875 L 8.53125 -8.59375 Z M 15.53125 -8.59375 "/></g></g><g style="fill:#f8b801;fill-opacity:1;"><g transform="translate(255.496898, 30.31094)"><path style="stroke:none" d="M 4.15625 -23.625 C 5.039062 -23.625 5.765625 -23.34375 6.328125 -22.78125 C 6.898438 -22.226562 7.1875 -21.5 7.1875 -20.59375 C 7.1875 -20.175781 7.128906 -19.757812 7.015625 -19.34375 C 6.910156 -18.925781 6.691406 -18.296875 6.359375 -17.453125 L 4.53125 -12.921875 L 1.421875 -12.921875 L 2.765625 -17.890625 C 2.242188 -18.117188 1.835938 -18.460938 1.546875 -18.921875 C 1.253906 -19.390625 1.109375 -19.945312 1.109375 -20.59375 C 1.109375 -21.5 1.394531 -22.226562 1.96875 -22.78125 C 2.539062 -23.34375 3.269531 -23.625 4.15625 -23.625 Z M 4.15625 -23.625 "/></g></g><g style="fill:#f8b801;fill-opacity:1;"><g transform="translate(263.750222, 30.31094)"><path style="stroke:none" d="M 2.609375 -22.046875 L 7.71875 -22.046875 L 7.71875 -4.15625 L 18.78125 -4.15625 L 18.78125 0 L 2.609375 0 Z M 2.609375 -22.046875 "/></g></g><g style="fill:#f8b801;fill-opacity:1;"><g transform="translate(282.776972, 30.31094)"><path style="stroke:none" d="M 2.609375 -22.046875 L 7.71875 -22.046875 L 7.71875 0 L 2.609375 0 Z M 2.609375 -22.046875 "/></g></g><g style="fill:#f8b801;fill-opacity:1;"><g transform="translate(293.10938, 30.31094)"><path style="stroke:none" d="M 22.6875 0 L 22.65625 -13.234375 L 16.15625 -2.328125 L 13.859375 -2.328125 L 7.40625 -12.953125 L 7.40625 0 L 2.609375 0 L 2.609375 -22.046875 L 6.828125 -22.046875 L 15.09375 -8.34375 L 23.21875 -22.046875 L 27.40625 -22.046875 L 27.46875 0 Z M 22.6875 0 "/></g></g></g></g></g></svg>